<!-- svgo-optimised -->
<svg class="icon icon__instagram" viewBox="0 0 24 24" xmlns="http://www.w3.org/2000/svg"><path d="M12 15.25a3.251 3.251 0 1 0 0-6.502 3.251 3.251 0 0 0 0 6.502Z" fill-rule="evenodd" clip-rule="evenodd"/><path d="M7.994 21.75H12c2.649 0 2.982 0 4.022-.057 3.534-.162 5.51-2.129 5.688-5.687.04-1.024.04-1.357.04-4.005 0-2.649 0-2.982-.057-4.022-.162-3.535-2.129-5.51-5.687-5.688C14.982 2.25 14.649 2.25 12 2.25s-2.982 0-4.022.057C4.444 2.47 2.47 4.436 2.29 7.994 2.25 9.018 2.25 9.351 2.25 12s0 2.982.057 4.063c.162 3.542 2.129 5.509 5.687 5.687Zm8.128-15.412a1.175 1.175 0 0 1 1.088-.716 1.172 1.172 0 0 1 .437 2.252 1.168 1.168 0 0 1-1.595-.86 1.178 1.178 0 0 1 .07-.677v.001Zm-8.746 3.746a5.004 5.004 0 1 1 9.247 3.83 5.004 5.004 0 0 1-9.247-3.83Z" fill-rule="evenodd" clip-rule="evenodd"/></svg>