<!-- svgo-optimised -->
<svg class="icon icon__linkedin" viewBox="0 0 24 24" xmlns="http://www.w3.org/2000/svg"><path d="M19.666 3H4.326A1.32 1.32 0 0 0 3 4.297v15.404A1.32 1.32 0 0 0 4.326 21h15.34A1.326 1.326 0 0 0 21 19.701V4.297A1.325 1.325 0 0 0 19.666 3ZM8.336 18.337h-2.67v-8.59h2.67v8.59ZM8.55 7.026a1.554 1.554 0 0 1-1.547 1.547 1.549 1.549 0 1 1 1.55-1.548H8.55Zm9.786 11.31H15.67v-4.175c0-.997-.018-2.28-1.388-2.28-1.389 0-1.6 1.086-1.6 2.21v4.248h-2.67V9.75h2.564v1.175h.036a2.81 2.81 0 0 1 2.526-1.388c2.704 0 3.203 1.778 3.203 4.092l-.004 4.708Z"/></svg>