<!-- svgo-optimised -->
<svg class="icon icon__pinterest" viewBox="0 0 24 24" xmlns="http://www.w3.org/2000/svg"><path d="M12 1.5C6.2 1.5 1.5 6.2 1.5 12c0 4.45 2.769 8.248 6.673 9.778-.09-.832-.176-2.104.037-3.01l1.23-5.218s-.315-.627-.315-1.558c0-1.46.845-2.551 1.899-2.551.894 0 1.329.672 1.329 1.48 0 .903-.575 2.248-.87 3.495-.246 1.046.525 1.899 1.555 1.899 1.866 0 3.302-1.969 3.302-4.807 0-2.514-1.805-4.274-4.385-4.274-2.986 0-4.742 2.24-4.742 4.557 0 .902.35 1.87.784 2.395a.314.314 0 0 1 .074.3c-.078.332-.259 1.045-.292 1.189-.045.193-.151.234-.352.14-1.313-.612-2.133-2.527-2.133-4.07 0-3.313 2.408-6.353 6.936-6.353 3.642 0 6.472 2.597 6.472 6.067 0 3.617-2.28 6.53-5.447 6.53-1.062 0-2.063-.554-2.408-1.207l-.652 2.498c-.238.91-.877 2.055-1.304 2.752.984.304 2.026.468 3.109.468 5.8 0 10.5-4.7 10.5-10.5S17.8 1.5 12 1.5Z"/></svg>