<!-- svgo-optimised -->
<svg class="icon icon__snapchat" viewBox="0 0 24 24" xmlns="http://www.w3.org/2000/svg"><path d="M6.6 5.604c-.525 1.176-.317 3.283-.233 4.756-.567.315-1.295-.237-1.708-.237-.428 0-.94.282-1.02.702-.058.303.077.744 1.05 1.128.376.149 1.272.324 1.479.812.291.686-1.496 3.852-4.303 4.314a.435.435 0 0 0-.364.455c.049.853 1.961 1.187 2.81 1.318.086.117.156.613.267.99.05.169.179.37.51.37.43 0 1.147-.332 2.395-.125 1.223.204 2.373 1.938 4.58 1.938 2.053 0 3.277-1.742 4.454-1.938.682-.113 1.267-.077 1.922.05.45.089.855.138.983-.305.113-.382.182-.868.267-.982.84-.13 2.762-.464 2.81-1.317a.436.436 0 0 0-.364-.454c-2.76-.455-4.602-3.612-4.303-4.315.206-.487 1.095-.66 1.478-.812.713-.28 1.07-.627 1.062-1.026-.01-.512-.626-.818-1.08-.818-.46 0-1.123.546-1.659.25.084-1.485.29-3.583-.234-4.758-.993-2.225-3.202-3.35-5.41-3.35C9.793 2.25 7.6 3.36 6.6 5.604Z"/></svg>