<!-- svgo-optimised -->
<svg class="icon icon__twitter" viewBox="0 0 24 24" xmlns="http://www.w3.org/2000/svg"><path d="M20.33 7.824c.012.178.012.355.012.535 0 5.46-4.157 11.757-11.758 11.757v-.003A11.7 11.7 0 0 1 2.25 18.26a8.298 8.298 0 0 0 6.116-1.713 4.138 4.138 0 0 1-3.86-2.869c.619.12 1.257.095 1.865-.071a4.133 4.133 0 0 1-3.315-4.05v-.053c.574.32 1.218.498 1.875.517a4.137 4.137 0 0 1-1.279-5.517A11.728 11.728 0 0 0 12.17 8.82a4.135 4.135 0 0 1 7.042-3.769 8.292 8.292 0 0 0 2.624-1.003 4.148 4.148 0 0 1-1.817 2.285 8.217 8.217 0 0 0 2.373-.65 8.392 8.392 0 0 1-2.062 2.14Z"/></svg>