<!-- svgo-optimised -->
<svg class="icon icon__whatsapp" viewBox="0 0 24 24" xmlns="http://www.w3.org/2000/svg"><path d="M18.94 5.103a9.662 9.662 0 0 0-6.88-2.853c-5.362 0-9.727 4.364-9.728 9.727A9.702 9.702 0 0 0 3.63 16.84l-1.38 5.042 5.157-1.353a9.718 9.718 0 0 0 4.649 1.184h.004c5.361 0 9.726-4.364 9.728-9.727a9.668 9.668 0 0 0-2.847-6.883ZM16.818 15.45c-.203.568-1.174 1.086-1.64 1.156-.42.063-.95.09-1.532-.096-.47-.147-.933-.318-1.386-.513-2.437-1.054-4.03-3.508-4.15-3.67-.122-.163-.993-1.319-.993-2.515 0-1.197.628-1.785.85-2.028a.893.893 0 0 1 .649-.304c.162 0 .326 0 .466.008.15.01.35-.054.547.42.202.487.689 1.683.75 1.805.06.121.1.263.02.426-.081.162-.122.263-.244.405-.12.142-.255.317-.364.426-.122.123-.247.253-.107.496.14.244.63 1.04 1.353 1.684.929.828 1.712 1.084 1.955 1.206.243.122.385.102.526-.06.142-.163.607-.71.77-.953.163-.244.324-.206.547-.122.223.083 1.418.671 1.66.793.244.122.4.178.463.28.063.102.063.587-.14 1.156Z" fill-rule="evenodd" clip-rule="evenodd"/></svg>