<!-- svgo-optimised -->
<svg class="icon icon__close" viewBox="0 0 24 24" xmlns="http://www.w3.org/2000/svg"><path d="m20.711 18.842.007.006a.381.381 0 0 1 .004.541l.354.354-.354-.354a.382.382 0 0 1-.418.08l-.197.46.197-.46a.38.38 0 0 1-.123-.085l-.006-.006-7.155-7.154-.353-.354-.354.354-7.154 7.154-.006.006a.38.38 0 0 1-.124.085l.198.46-.198-.46a.379.379 0 0 1-.418-.08l-.353.354.353-.354a.38.38 0 0 1 .005-.541l.006-.006 7.155-7.155.353-.353-.354-.354-7.15-7.15a.38.38 0 0 1 .536-.537l7.151 7.15.354.354.353-.354 7.155-7.154.006-.006a.38.38 0 0 1 .541-.005l.354-.353-.354.353a.38.38 0 0 1-.005.542l-.006.006-7.154 7.154-.354.354.354.353 7.154 7.155Z" stroke="currentcolor"/></svg>