<!-- svgo-optimised -->
<svg class="icon icon__Group" viewBox="0 0 123 18" xmlns="http://www.w3.org/2000/svg"><path d="M0 .49h6.442c3.023 0 6.312.626 6.312 4.34 0 1.905-1.194 3.205-2.975 3.76v.051c2.274.289 3.786 1.954 3.786 4.17 0 3.574-3.417 4.754-6.49 4.754H0V.49Zm3.805 6.825h2.757c1.173 0 2.39-.482 2.39-1.859 0-1.42-1.367-1.785-2.56-1.785H3.805v3.644Zm0 7.065H7.22c1.193 0 2.534-.505 2.534-2.002 0-1.614-1.828-1.879-3.07-1.879H3.805v3.881ZM19.247.489h-3.805v17.075h3.805V.49ZM30.533.056c5.39 0 9.32 3.495 9.32 8.969 0 5.474-3.93 8.975-9.32 8.975-5.385 0-9.316-3.5-9.316-8.975 0-5.474 3.931-8.97 9.316-8.97Zm0 14.467c3.247 0 5.373-2.317 5.373-5.498s-2.126-5.5-5.373-5.5c-3.241 0-5.371 2.319-5.371 5.5 0 3.18 2.13 5.498 5.37 5.498ZM42.221.49h10.563v1.447h-8.95v6.079h8.391V9.46h-8.39v6.654h9.336v1.45h-10.95V.49ZM55.65.49h10.342v1.447H57.26v6.079h8.126V9.46h-8.126v8.104H55.65V.49ZM68.329.49h10.347v1.447h-8.737v6.079h8.124V9.46h-8.124v8.104h-1.61V.49ZM81 .49h10.565v1.447H82.61v6.079h8.394V9.46H82.61v6.654h9.341v1.45h-10.95V.49ZM115.357 1.937h-5.907V.49h13.423v1.447h-5.91v15.627h-1.606V1.937ZM102.156 16.539c-4.387 0-7.11-3.292-7.11-7.548 0-4.252 2.723-7.542 7.11-7.542 3.014 0 5.246 1.56 6.349 3.918l1.205-1.014C108.278 1.682 105.57 0 102.156 0c-5.123 0-8.677 3.768-8.677 8.991 0 5.228 3.554 8.998 8.677 8.998 3.601 0 6.423-1.875 7.778-4.8l-1.279-.945c-1.029 2.563-3.326 4.295-6.499 4.295Z" fill="#414141"/></svg>