<!-- svgo-optimised -->
<svg class="icon icon__info-sheet icon icon__info-sheet" viewBox="0 0 230 204" xmlns="http://www.w3.org/2000/svg"><path d="M53.7 1.5C39 4.7 11.1 16.5 2.7 23L0 25l.4 69.5c.2 57 .5 69.7 1.7 71 .7 1 1.7 1.7 2 1.7s4.2-2.6 8.1-5.7c10.4-8 19.8-14 28.5-18l7.6-3.4 2.2 2.4a422.2 422.2 0 0 1 29.4 34 36.4 36.4 0 0 1 5.9 21.5v6h26.8c29.9 0 28 .5 28-7.5 0-2.4.6-7.6 1.4-11.6 2.8-13 4.5-27 4.5-37.8v-10.6l3-.6c17.5-3.5 40.4 4.5 64.2 22.3a207 207 0 0 0 12.6 9c.4 0 1.4-.7 2.2-1.6 1.4-1.4 1.6-8 1.5-58.5-.1-31.3-.4-62.9-.8-70.3l-.6-13.3-9.3-5.2c-10.5-6-26.5-12.5-37.7-15.6a103 103 0 0 0-40-1.3c-8.4 2-16.4 6.3-22 11.1l-4.4 4-5.4-4.5A55.2 55.2 0 0 0 71.4 0c-6 0-14 .7-17.7 1.5zm32.4 7.9c7.7 2 15 5.7 20.2 10.6l4.4 4v67.4l-3.5-2A11 11 0 0 0 94 90.6c-2 1.9-2.5 2-3.2.8-2-3-3.1-11.7-4-28.8-1-14.8-1.4-18.2-3.3-22-1.8-3.7-2.7-4.6-5.3-4.8a7 7 0 0 0-5.8 2.1c-2.6 2.2-3 3.1-3.6 12.8-.4 5.6-.8 22.8-.8 38-.1 31.7-.6 34.6-6.2 34.6-2.5 0-4.3-1.2-9.2-6.4-3.3-3.5-7.3-7-8.8-8a41.3 41.3 0 0 0-18-4.5c-4.4 0-4.7.2-4.7 2.5 0 2 1.8 4.4 6.9 9.4a259 259 0 0 1 11 11.5l4.2 4.7-8.9 4.6a148 148 0 0 0-21.8 13.8l-3.3 2.4V28.8l3.3-2.1c11-6.9 31-14.8 43.5-17.3a83.8 83.8 0 0 1 30 0zm87.8 0c10.9 2.2 24 7.1 35.9 13.3l10.8 5.6.5 62.2.4 62.5c0 .2-3.9-2.4-8.3-5.6-22.4-16-46.7-23.3-65.4-19.5-2.1.4-2.1.1-2-8 .2-7.1-.1-8.8-1.9-11.2-3-4-6.4-5-10.2-3l-3.1 1.5v-3.5c0-4.2-4.5-9.2-8.4-9.2h-2.6V23l5-4c6-4.9 12.5-8 19.4-9.7a86 86 0 0 1 29.9 0z" fill="currentColor"/></svg>