<!-- svgo-optimised -->
<svg class="icon icon__Menu" viewBox="0 0 24 24" xmlns="http://www.w3.org/2000/svg"><path d="M21.188 3.75H2.813a.188.188 0 0 0-.188.188v1.5c0 .103.084.187.188.187h18.375a.188.188 0 0 0 .187-.188v-1.5a.188.188 0 0 0-.188-.187Zm0 14.625H2.813a.188.188 0 0 0-.188.188v1.5c0 .103.084.187.188.187h18.375a.188.188 0 0 0 .187-.188v-1.5a.188.188 0 0 0-.188-.187Zm0-7.313H2.813a.188.188 0 0 0-.188.188v1.5c0 .103.084.188.188.188h18.375a.188.188 0 0 0 .187-.188v-1.5a.188.188 0 0 0-.188-.188Z" fill="#414141"/></svg>