<!-- svgo-optimised -->
<svg class="icon icon__prize" viewBox="0 0 24 24" xmlns="http://www.w3.org/2000/svg"><path d="M22 10.5h-8.5v-3h-3v3H2a.5.5 0 0 1-.5-.5V8A1.5 1.5 0 0 1 3 6.5H6.89l-.251-.674c-.356-.958-.144-1.794.342-2.399.497-.62 1.286-1 2.075-.997.713.009 1.43.323 1.966 1.08l.004.005.57.78.399.546.405-.54.57-.76.006-.009c1.693-2.351 5.357-.423 4.383 2.3l-.239.668H21A1.5 1.5 0 0 1 22.5 8v2a.5.5 0 0 1-.5.5Zm-9 10h.5v-8h8V20a1.5 1.5 0 0 1-1.5 1.5H4A1.5 1.5 0 0 1 2.5 20v-7.5h8v8H13ZM10.064 6.064C11.01 5.117 10.334 3.5 9 3.5A1.5 1.5 0 0 0 7.5 5c0 1.333 1.617 2.01 2.564 1.064Zm6 0C17.01 5.117 16.334 3.5 15 3.5A1.5 1.5 0 0 0 13.5 5c0 1.333 1.617 2.01 2.564 1.064Z" fill="#006A5D" stroke="#006A5D"/></svg>