<!-- svgo-optimised -->
<svg class="icon icon__quote" viewBox="0 0 71 54" xmlns="http://www.w3.org/2000/svg"><path d="M53.86 53.357c8.055 0 13.604-6.623 13.604-13.962 0-8.055-6.086-12.888-12.172-12.888-1.969 0-3.759.358-5.37 1.253l-.716-.358c.716-6.802 7.518-18.079 21.48-25.239L69.612.015C49.564 6.28 37.929 20.063 37.929 35.457c0 10.561 6.265 17.9 15.931 17.9Zm-37.053 0c7.876 0 13.425-6.623 13.425-13.962 0-8.055-6.086-12.888-12.172-12.888-1.969 0-3.759.358-5.37 1.253l-.716-.358c.716-6.802 7.518-18.079 21.48-25.239L32.38.015C12.332 6.28.876 20.063.876 35.457c0 10.561 6.086 17.9 15.931 17.9Z" fill="#000000"/></svg>
