<!-- svgo-optimised -->
<svg class="icon icon__tag" viewBox="0 0 24 24" xmlns="http://www.w3.org/2000/svg"><path d="m21.985 10.753-.694-7.326a.797.797 0 0 0-.717-.718l-7.327-.693h-.009a.24.24 0 0 0-.178.068L2.084 13.059a.233.233 0 0 0 0 .33l8.527 8.527a.232.232 0 0 0 .166.068.232.232 0 0 0 .167-.068l10.975-10.975a.247.247 0 0 0 .066-.188Zm-11.21 8.81-6.338-6.337 9.368-9.368 5.79.548.548 5.79-9.368 9.367ZM15.938 6a2.066 2.066 0 0 0-2.062 2.063c0 1.136.925 2.062 2.062 2.062a2.066 2.066 0 0 0 2.063-2.063A2.066 2.066 0 0 0 15.938 6Zm0 2.813a.75.75 0 1 1-.002-1.499.75.75 0 0 1 .002 1.498Z" fill="currentcolor"/></svg>